<svg xmlns="http://www.w3.org/2000/svg" viewBox="0 0 344 152"><defs><style>.cls-1{fill:#c42626;}.cls-2{font-size:48px;letter-spacing:0.01em;}.cls-2,.cls-3{fill:#4d4d4d;font-family:InkFree, Ink Free;}.cls-2,.cls-3,.cls-4{stroke:#4d4d4d;stroke-miterlimit:10;stroke-width:2px;}.cls-3{font-size:24px;letter-spacing:0.01em;}.cls-4{fill:none;}.cls-5{fill:#eb8c23;}</style></defs><g id="Capa_2" data-name="Capa 2"><g id="Capa_1-2" data-name="Capa 1"><circle class="cls-1" cx="65" cy="87" r="65"/><text class="cls-2" transform="translate(147 77.67)">Algo Grill</text><text class="cls-3" transform="translate(197.5 135.64)">Chill Out</text><line class="cls-4" x1="147" y1="127" x2="191" y2="127"/><line class="cls-4" x1="298" y1="127" x2="342" y2="127"/><path class="cls-5" d="M57.18,53c5.34,2.71,6.94,6.69,5.29,12.27-1.38,4.67-4.34,8.38-7.25,12.11-1.59,2-2,4.07-.52,7.21a18.84,18.84,0,0,1,6.53-10c.67-.52,1.39-1.36,2.28-1,1.14.5.3,1.54.28,2.32a24.6,24.6,0,0,0,.6,8.15c1.29,4.27,4,5.16,7,1.88A26.68,26.68,0,0,0,78.5,63.66a28.57,28.57,0,0,0-7.29-15.8c4.07.5,6.19,2.52,8.2,4.2,10,8.31,17.24,18.48,19.3,31.48,3.38,21.21-8.82,34.74-28.74,35.15A70.28,70.28,0,0,1,56.54,118c-10.54-1.81-18.25-7.54-23.75-16.46a14.73,14.73,0,0,1-2-8.22c0-.7-.21-1.69.76-1.86s1.23.71,1.32,1.44a6.14,6.14,0,0,0,2.3,3.87A1.32,1.32,0,0,0,35.9,95c-2-8.81,1.78-15.19,8.54-20.31,2.08-1.58,4.27-3,6.44-4.48C59.13,64.77,60,62.44,57.18,53Z"/></g></g></svg>