<svg xmlns="http://www.w3.org/2000/svg" viewBox="0 0 445.32 371.59"><defs><style>.cls-1{fill:#fff;}</style></defs><g id="Capa_2" data-name="Capa 2"><g id="Capa_1-2" data-name="Capa 1"><path class="cls-1" d="M121.4,122l-18.78,6.31c-1-6.87-3.93-11.13-9.19-11.51-2.6-.18-5.4,2.44-8.8,4.13-12.1-7.11-25.27-5.48-37.5,5.89-5.76,5.35-11.08,11.19-16.69,16.7a8.81,8.81,0,0,1-3.77,2.16c-4.47,1.2-9,2.15-13.81,3.27A74.58,74.58,0,0,1,13,110.84c12.78-49.13,44.28-82.36,90.91-99.73C160.58-10,213.76-.8,261.36,36.84A84.13,84.13,0,0,1,291.25,82c-6.66,1.67-13.16,3.37-19.69,4.93Q204,103.11,136.43,119.15c-2.85.67-6.11.16-9.07-.36-3.23-.58-5.67-.59-6.14,3.42ZM83.86,45.71c-.93-1.85-1.24-3.52-2.13-3.92a3.54,3.54,0,0,0-3.35,1c-1.85,3.21-3.85,6.52-4.69,10.06-.68,2.83,1.86,4.21,3.94,2C80.15,52.25,81.83,48.8,83.86,45.71Zm102-26c-.78-.35-2.54-1.6-3-1.25a111.82,111.82,0,0,0-9.33,8.89c-.16.17,1.2,2.65,2.08,2.81C179,30.7,186,24,185.89,19.66ZM133.83,38.19l-4.9-7.93c-1.18,2.63-3.34,5.28-3.28,7.88s2.35,5.17,3.66,7.76ZM153.18,16.1l-.45.9a5.12,5.12,0,0,0-2,0c-1.54.7-3,1.58-4.48,2.39,1.15,1.24,2.25,2.54,3.48,3.69a2.69,2.69,0,0,0,1.86.6c3.17-.24,6.34-.55,9.49-1a3.11,3.11,0,0,0,.35-2C158.76,19.05,156,17.59,153.18,16.1ZM105.61,36.74c2.06-.73,3.51-.81,4-1.55s.39-2.59-.18-3A92.18,92.18,0,0,0,100,25.43c-.59-.37-2.25.34-2.93,1a2.68,2.68,0,0,0,.19,2.63C100,31.8,102.9,34.31,105.61,36.74Z"/><path class="cls-1" d="M246.64,310.45h25.75c0-11.18.65-21.67-.22-32.05-.6-7,1.63-11.33,8.23-14.52.61,15.3,1.21,30.34,1.8,45.44H308c-.72-20-1.42-39.41-2.13-59.17h8.58c.72,19.47,1.43,38.87,2.13,57.91h25.77c-.64-19.93-1.26-39.14-1.88-58.5l8.37-.71Q350,278,351.12,307H377c-.72-20.08-1.42-39.46-2.14-59.33l8.57-.46c.66,18.35,1.3,36.23,2,55.63,4.46-4.39,8.08-7.81,11.54-11.39,13.39-13.9,13.36-13.92,12.85-33.13-.07-3,0-5.95,0-8.94,6.8,1.48,10.14,5.4,9,13,5.27-7.07,8.78-15.61,18.24-17.23l1.42,1.12c-5.08,8.49-9.7,17.3-15.3,25.43-24.58,35.68-57.57,61.37-97.38,77.53C246,381.64,167.1,379.37,90.46,338.82a196.66,196.66,0,0,1-77.83-73.4c-.68-1.13-1.32-2.3-1.92-3.49-.12-.24,0-.61.06-1.1,5-1.44,9.05-1.5,11.66,4.36,1.73,3.88,4.64,7.25,7.74,11.93V259.9l9.45-.43c0,8.42.15,16.34-.07,24.25a11.31,11.31,0,0,0,3.92,9.21c7.26,6.79,14.4,13.71,21.59,20.58l1.49-.6C66,295,65.35,277,64.74,258.6l8.45-.52c.74,19.87,1.46,39.26,2.19,58.65h25.87c-.7-20.07-1.38-39.46-2.08-59.3h8.55c.69,19.38,1.38,38.76,2.07,58h25.1c.45-9.62.39-18.69,1.52-27.6.46-3.65,3.51-7,5.39-10.42l1.69.34V314.2h26.66c-.69-20.05-1.35-39.42-2-59.16h8.49c.72,19.4,1.45,38.9,2.17,58.06h25.75c-.64-20-1.26-39.31-1.9-59.25l8.36-.73c.77,19.95,1.53,39.46,2.28,58.8h25.15V270.43c6.14,1.75,8.69,5.59,8.34,12.22C246.28,291.91,246.64,301.22,246.64,310.45Zm-5.71,52.78c-.56-15.36-1.08-29.7-1.62-44.59l-25.88,1.17c.56,15,1.09,29.33,1.62,43.42ZM180.31,321c0,13,0,25.52.11,38.08a3.48,3.48,0,0,0,2.28,2.46c7.66,1,15.36,1.66,23.71,2.5-.53-15.15-1-29.46-1.55-44.12Zm93.81,37.35v-40H247.93c.52,14.88,1,29.06,1.55,44ZM170.79,321.9H145.51c0,10.28-.06,19.89.09,29.5a3.75,3.75,0,0,0,2,2.88c7.76,2.05,15.59,3.85,23.19,5.67Zm112.62,34.5c8.66-2.78,16.2-5.14,23.68-7.67.86-.3,2-1.54,2-2.32-.16-9.88-.52-19.77-.81-29.26H283.41ZM110.49,323.12c0,5.62-.1,10.42.08,15.21.05,1.1.84,2.77,1.72,3.15,7.88,3.36,15.85,6.48,23.75,9.66v-28ZM317.63,345.2c8.74-4.24,16.46-7.94,24.1-11.77a3.2,3.2,0,0,0,1.36-2.39c.12-5.24.06-10.48.06-15.16H317.63ZM102,336.88l-.72-12.43H82.84l-.22,1.12Zm249.26-22.17c.24,4.46.46,8.29.73,13.16l19.18-13.16Z"/><path class="cls-1" d="M418.6,149.25c2.57-3.41,1.15-5.84-2-7.82-6.36-4.06-10.11-2.9-12.75,4-1,2.64-2.06,5.27-3,7.94s-1.61,5.4-3.66,8.18c-.48-6.52-2.2-13.25-1.11-19.49s5-12.05,7.93-18.65c-2.31.5-4.61.64-6.59,1.49-4.56,2-8.59,5.37-14.25,2.75-1.12-.51-3.57,1.87-5.06,3.51,4.75-2.65,8.71-2.64,12.61.76,2.43,2.13,3.61,4.4,1.82,7.83a127.54,127.54,0,0,0-5.89,13.7c-1.27,3.31-3.69,4.17-6.73,3.57-3.91-.78-2.27-3.92-2-6.1.51-4.75,1.41-9.46,1.34-14.34-.7,3.36-1.39,6.72-2.12,10.25-12-9.85-13.86-31.2-4.53-52.2-7.34,1.54-13.79,4.25-18.49,9.22a65.26,65.26,0,0,0-11.88,16.91c-2.84,6.12-3.66,13.18-5.14,18.92l-13.11-21.7-1.77.59c.06,10.36-1.4,20.15-10.48,28.18.49-3.36.77-5.75,1.2-8.11,1.07-5.88-.65-10.44-5.94-13.57-5.63-3.34-9.6-3.23-15.18.9-3.68,2.73-7.24,5.63-10.86,8.45l-1.49-.61c.61-4.27.42-8.86,2-12.74,3.27-8.11,6.37-16.65,11.49-23.57,12.18-16.48,22.46-33.18,18.13-54.9,16.12.22,31.81,15.34,36,34,15.76-5.84,33.71-27.68,30.28-67.65,13.49,10,21.72,22.55,24.34,38.67,2.55,15.68-.63,30.68-5.39,45.65,9.57-10.44,20.45-18.73,34.84-23.64-.82,2-1.2,3.19-1.75,4.27-7,13.81-7.87,27.91-2.31,42.44,2.73,7.13,5.52,14.3,3.73,22.25-2.2,9.77-8.44,17-15.27,24l3.12-13.45Z"/><path class="cls-1" d="M121.22,122.21c2.56.27,5.33,0,7.65.93,4.9,1.89,5.48,3.67,3.07,8.32-9,17.32-12.78,36.26-17.42,54.93-2.4,9.64-4.52,19.35-6.73,29-.1.43.17.94.35,1.81,1-.38,2-.47,2.57-1.06a44,44,0,0,0,11-20.24c4.42-19.05,16.05-33.26,32.29-43.79a9.67,9.67,0,0,1,10-.73c.94.44,3.61-.63,4-1.61,1.22-3,2.73-4.74,5.91-3,2.92,1.63,6.55,2.85,5.1,7.72-2.94,9.86-5.62,19.81-8.38,29.73a3.72,3.72,0,0,0,.55,3c4.84-5.1,10.4-9.71,14.34-15.43,5-7.35,9.83-14.24,19-17,2.28-.69,3.76-3.92,5.71-5.88,3.28-3.28,7-2.76,10.41-.5,5.63,3.71,8,9.19,7.39,15.88-.39,4.23-1,8.44-1.57,12.66l1.23.67c4.48-5.35,8.92-10.74,13.48-16a30.94,30.94,0,0,1,3.78-3.23l1.68,1.42c-3.26,6-6,12.44-9.94,17.95-4.43,6.16-10.22,11.32-15,17.24-2.89,3.57-5,7.79-7.5,11.65a128.4,128.4,0,0,1-7.43,10.61c-5,6.16-11.32,8.28-19.11,5.5S177.11,214,176.37,206.7c-.44-4.41-.08-8.9-.08-12.95C167,200,163,210,159.85,221c-3.64,12.76-8.26,25.26-12.86,37.73a163.86,163.86,0,0,1-8.42,18.45,38.8,38.8,0,0,1-6.16,8.4c-3.84,4.16-8.39,3.32-13.32,1.76-4.46-1.41-4.81-5-5.85-8.34-2.56-8.36,2.74-14.82,5.52-21.8A117.85,117.85,0,0,1,126.08,243c1.44-2.55,3.47-4.76,4.93-7.31,2.66-4.63,4.63-9.72,7.72-14,3.61-5,8.16-9.39,12.18-14.14a15,15,0,0,0,2.52-4.86C138,219.3,138,219.3,124.64,213.57c-3.17,3.64-6,7.53-9.45,10.7-4.85,4.44-9.64,5-14.13,2.37-4.93-2.87-5-7.62-4.19-12.33a496.07,496.07,0,0,1,22.9-87.58c.56-1.56,1.09-3.14,1.63-4.7Zm96.24,30c-5.35-1.31-6.38,3.17-8.74,5.55a51.59,51.59,0,0,0-14.14,24.76c-.87,3.73-.43,7.84-.06,11.72.1,1,2.34,2.76,3.31,2.58,5.43-1,10.94-2.52,13.07-8.42,2.48-6.86,6.63-13.2,6.5-21,0-1.56,1.56-3.15,2.43-4.78C219.06,159.23,218.24,155.61,217.46,152.19Zm-88,56,2.21,1.17c3.89-4.15,8.12-8,11.58-12.52,6.58-8.48,12.76-17.27,19-26,1.13-1.58,2.52-3.63,2.35-5.33a16,16,0,0,0-2.94-7.13c-.34-.49-3.39.27-4.72,1.15-10.67,7.09-16.29,18.1-22,29-.29.55,0,1.34-.24,2-1.06,3.26-2.27,6.48-3.26,9.77C130.61,202.89,130.08,205.58,129.43,208.23Zm-6.25,71.24c13.34-17.16,19.41-37.42,24.7-58C135.67,239.06,122.89,256.43,123.18,279.47Zm65.25-63.83,2.47.89,10.87-10.39-15.19-6C187.24,205.67,187.83,210.66,188.43,215.64Z"/><path class="cls-1" d="M85.15,125.9c2.25-3.79,4.51-6.68,9.29-4.27,6.16,3.13,6.89,4.78,5.36,11.36-3.08,13.21-6,26.45-8.82,39.72a133,133,0,0,0-2.87,18.45c-.93,13.83-1.72,27.7-1.81,41.55-.06,7.5,1.48,15,2.2,22.51a28.36,28.36,0,0,1-.31,4.59c-5.58-.39-9.37-2.94-10.62-7.73a112.21,112.21,0,0,1-3.88-20.94c-.65-10.2-.16-20.47-.16-30.53-2.12,3-5.14,6.16-6.7,9.87C61.54,223.13,53.45,234,45.26,244.69s-24.16,11.78-36,4C1.93,243.9,0,237.79,0,229.91c0-17.73,4.61-34.46,11.5-50.57a122.46,122.46,0,0,1,11.32-21.43c8.39-12.2,17.88-23.6,30.6-31.71C63.76,119.61,74.24,119,85.15,125.9ZM16.24,220.55l.72.29c.49,4.27.6,8.64,1.56,12.8,1.68,7.25,4.65,8.42,10.84,4,4.13-3,8.47-6.3,11.18-10.46,7.64-11.71,14.86-23.72,21.53-36,5-9.17,8-19.44,13.44-28.3,5.29-8.66,6.3-18,7.95-27.43.5-2.84-.77-5-3.65-4.55-4.64.68-9.73,1.08-13.66,3.3-18.28,10.32-28.93,27.25-37.9,45.5-1.67,3.4-4.07,6.48-5.46,10-1.05,2.66-.9,5.77-1.51,8.63C19.67,205.72,17.93,213.13,16.24,220.55Z"/><path class="cls-1" d="M418.75,149.06c-3,6.6-6.81,13-8.68,19.86-4.43,16.32-7.92,32.9-11.77,49.37-1.11,4.71-2.23,9.42-3.22,14.15a12.25,12.25,0,0,0,.19,3.23l1.3.73c2.48-3.32,5.06-6.56,7.43-10,9.49-13.64,11.83-29.76,15.87-45.33,3.15-12.2,7.18-24.17,10.58-36.31,1.45-5.16,4.73-3.81,7.74-2.45s6.87,2.46,4.29,7.51c-10,19.64-13.56,41.17-17.94,62.46-1.36,6.64-3.06,13.22-4.54,19.84a27.4,27.4,0,0,0,0,4.3c2.22-2.16,4-3.29,5-4.93,5.2-9.06,10.15-18.27,15.3-27.35a11.48,11.48,0,0,1,4.24-4c1.16,6.78,1.67,13-2.21,19-3.15,4.84-5.12,10.48-8.48,15.13A40.77,40.77,0,0,1,423,244.87c-6.2,3.89-12.15.29-14.21-6.78-4.92,2.8-9.76,7.13-15.25,8.28-6.65,1.38-8.62-1.94-10-12.38-8.35,6.6-16.68,6.71-25.07-.39-1.46,1.7-2.71,3.2-4,4.67-5.17,5.87-9.16,7-15.84,4.71-7.4-2.59-11.91-7.41-11-14.71,1.1-9,3.8-17.74,6.05-26.54.77-3,2.29-5.83,3.72-9.37-1.64.29-2.64.51-3.66.64-6.5.83-12-4-10.59-10.34a76.73,76.73,0,0,1,6.5-18.18c1.79-3.52,5.61-1.38,8.44-.08s2.68,3,1.14,5.6a72.08,72.08,0,0,0-4,8.81c4.91,1.22,9.26,2.15,13.51,3.41,2.73.81,3.05,2.47,2.06,5.38-3.7,10.8-7.45,21.64-10.15,32.72-1.18,4.83.12,10.27.29,15.43l2,.58a69.12,69.12,0,0,0,5.11-4.86c9.47-11,13-24.4,15.86-38.21,1.33-6.49,3.17-12.9,5.11-19.25,1.71-5.61,3.72-6.16,8.73-2.85,1.65,1.09,3.19,2.37,4.32,3.22-6,18.89-14.7,36.86-12.53,57.17l2.44,1.93a30.56,30.56,0,0,1,2.65-5.12c10.9-13.9,16.9-29.75,20.45-47,2.43-11.82,6.62-23.29,10.15-34.87.73-2.38,1.16-5.72,5.09-4.56s8.48,1.53,8.36,7.29Z"/><path class="cls-1" d="M299.92,136.25c-2.65,1.54-4.18,2.18-5.4,3.19-9.66,8-18.15,16.93-23.41,28.56-5.17,11.45-11.15,22.61-15.49,34.37-5.87,15.91-9.52,32.39-6.61,49.61.94,5.56,2.5,6.52,7.66,3.85,9.67-5,18.23-11.38,24.81-20.29,6.06-8.21,12.51-16.13,19.68-25.33-6.9,1.64-12.16,3-17.45,4.1a26.31,26.31,0,0,1-6.43.61c-2.62-.11-5.86,1.25-7.3-2.5-1.55-4-2.19-8,1.43-11.9,3.74,4.43,8.35,3.24,12.8,2,6.71-1.84,13.33-4,20-6,.64-.19,1.57-.27,1.82-.72,2.57-4.46,5.41-3.2,8.32-.48,4.15,3.88,4.38,6.33,1.48,11.36-1.71,3-3.1,6.1-4.73,9.11-2.42,4.49-4.6,9.14-7.44,13.34-8.29,12.24-17.88,23.37-29.53,32.59-5.87,4.65-12.35,8.27-20,7.32-12.61-1.56-19-10.82-18.56-25.88.75-25.67,8.76-49.54,21.14-71.77,5.68-10.19,12.81-19.69,20.18-28.77,4.31-5.3,10.15-9.5,15.77-13.55,3.87-2.78,8.3-1.41,12.22.91,4.26,2.53,5.91,6.21,5.82,11.25-.2,11.13-4.47,21.32-6.95,31.91-.38,1.62-3.23,4.12-4.34,3.84a22.58,22.58,0,0,1-8.39-4.5c-.66-.53.09-3.54.91-5C297,158.17,299.66,148.28,299.92,136.25Z"/></g></g></svg>