<svg width="569" height="225" viewBox="0 0 569 225" fill="none" xmlns="http://www.w3.org/2000/svg">
<path d="M46.6 81C47.1 83.2 46.8 84.1 45.6 84.6C44.7 84.9 44 86 44 86.9C44 87.8 46.3 96.8 49 107C51.8 117.1 54 126.5 54 127.7C54 129 54.6 130 55.3 130C56 130 58.7 131.3 61.3 133C63.9 134.6 66 135.5 66 134.9C66 134.3 62.9 122.1 59 107.9C55.2 93.6 52 81.7 52 81.5C52 80.6 48.7 78 47.5 78C46.4 78 46.2 78.8 46.6 81Z" fill="#EC9615"/>
<path d="M101.8 81.2L99.1 84.1L98.8 115L98.5 146H103.1H107.7L108.3 127.2C108.7 116.9 109 101.6 109 93.2C109 78.1 109 78 106.8 78.1C105.5 78.2 103.3 79.5 101.8 81.2Z" fill="#EC9615"/>
<path d="M159.5 81.9C160 82.9 159.2 83.9 155.8 86.3C154.7 87.1 152.4 94.2 149.1 107C146.3 117.7 143.6 127.6 143.2 129L142.3 131.6L147.2 129.9C149.9 129 152.2 128.1 152.5 127.8C152.7 127.6 155.7 117.8 159 106L165.1 84.6L162.8 82.8C160.3 80.9 158.5 80.4 159.5 81.9Z" fill="#EC9615"/>
<path d="M76 96.6C76 96.8 76.6 98 77.3 99.1C78.1 100.6 78.2 101.4 77.4 101.7C73.4 103.1 73.2 104.1 74.6 114C75.3 119.2 76.2 127.6 76.6 132.7C77.3 141.8 77.3 141.9 80.3 142.9C81.9 143.5 83.7 144 84.2 144C85.8 144 84.8 101.7 83.2 99.7C81.9 98.2 76 95.6 76 96.6Z" fill="#EC9615"/>
<path d="M128.4 97.5C130.7 99.2 129.9 101.7 126.7 102.9C124 104 123.7 105.8 122.4 129.8C121.8 141.6 121.8 142.2 123.6 141.8C125.2 141.5 126.4 138.2 130.2 123.5C132.8 113.6 134.9 104.3 135 102.8C135 101 134.1 99.5 132.1 98.1C128.8 95.7 125.3 95.2 128.4 97.5Z" fill="#EC9615"/>
<path d="M10 117.3C1.1 119.9 0 120.5 0 123C0 126.5 3.1 127 11.1 124.8C20.1 122.4 21.4 121.8 21.8 119.6C22.2 117.7 20.3 115 18.6 115.1C18 115.1 14.1 116.1 10 117.3Z" fill="#EC9615"/>
<path d="M180.2 115.9C179.4 116.3 179 117.8 179.2 119.1C179.4 121 180.6 121.9 185 123.3C188 124.4 192.8 125.2 195.5 125.3C199.8 125.4 200.5 125.2 200.8 123.4C201.2 120.5 199.7 119.7 190.4 117.2C181.1 114.7 181.9 114.8 180.2 115.9Z" fill="#EC9615"/>
<path d="M92 91.8C92 96.7 92.3 110.9 92.7 123.4L93.3 146.1L95.9 145.8L98.5 145.5L98.8 114.9L99 84.2L96.8 83.6C92.1 82.4 92 82.6 92 91.8Z" fill="#ECC115"/>
<path d="M148.7 83.7C148.2 84.5 135 134.2 135 135.3C135 136 141.8 132.2 142.5 131C142.8 130.6 145 122.4 147.5 112.9C149.9 103.3 152.6 93.4 153.4 90.7C154.3 87.6 154.4 86 153.7 86C153.1 86 151.9 85.3 150.9 84.4C150 83.6 149 83.2 148.7 83.7Z" fill="#ECC115"/>
<path d="M37 86.8C37 88.7 48.3 126.6 49.2 127.7C50.6 129.4 54 129.4 54 127.7C54.1 127.1 51.7 117.4 48.8 106.3L43.5 86H40.3C38.5 86 37 86.3 37 86.8Z" fill="#ECC115"/>
<path d="M116.6 108.1C116.3 111.5 116 121 116 129.1C116 142.6 116.2 144 117.8 144C121.3 144 121.7 142.5 122.4 130C122.8 123.1 123.3 114.5 123.6 110.9C124.2 105 124 104.2 122.4 103.8C121.3 103.5 119.8 102.9 118.9 102.6C117.6 102 117.2 102.9 116.6 108.1Z" fill="#ECC115"/>
<path d="M66 103.4C66 104.9 76 141.4 76.6 141.9C77 142.2 77 138.2 76.6 133C75.8 122.5 73.6 105.3 72.9 104.7C72.3 104.1 66 103 66 103.4Z" fill="#ECC115"/>
<path d="M91.5 0.999996C91.2 1.5 90.2 2 89.3 2C84.8 2 75.8 9.20001 70.9 16.6C69.2 19.2 68.7 19.4 61.3 19.4C54.7 19.5 52.8 19.9 49 22.2C40.6 27.1 38.1 31.6 38.3 41.1C38.5 46.5 39 48.1 41.5 51.4C45.7 57 50.8 59.8 58.2 60.7L64.5 61.5L64.6 68.4C64.7 72.1 65.3 75.7 65.9 76.3C67.1 77.5 69.2 77.8 78.3 77.9L84 78V84.6V91.1L81.8 89.6C78.3 87.1 72.1 87.6 67.7 90.6C64.2 92.9 62.6 93.1 62.4 91.2C61.8 84.8 59.4 78.5 56.1 75C52.8 71.5 51.9 71 47.8 71C43.4 71 34 75 29.8 78.8C28 80.3 27.3 86 28.7 87.4C29.1 87.7 29.5 89 29.7 90.1C29.9 91.3 30.9 95 32.1 98.4C33.2 101.7 34.3 105.6 34.6 107C34.9 108.4 35.3 110.2 35.7 111C36 111.8 36.5 113.6 36.7 115C36.9 116.4 37.5 117.9 38.1 118.5C39.6 120 39.1 124.7 37.4 125.4C36.1 125.9 35.9 126.9 36.4 130.2C36.8 132.4 37.4 134.8 37.8 135.4C38.1 136 38.5 136.9 38.7 137.5C38.8 138 39.1 139.6 39.5 141C39.8 142.4 41.1 147.8 42.5 153C43.9 158.2 45.2 163.4 45.5 164.5C47.2 171.3 52 189.7 52.3 190.5C52.5 191 53.3 194.1 54 197.3C55.7 204.8 58.8 207 71 209.5C71.8 209.7 74.5 210.3 77 210.9C84.7 212.8 105.8 213.4 116.6 212.1C127.2 210.8 132.6 209.6 137.7 207.4C139.4 206.6 141.5 206 142.3 206C144.2 206 145.7 204.1 146.4 201C146.7 199.6 147.2 197.6 147.5 196.5C148.3 193.5 154.9 167.9 155.5 165C156.2 161.9 156.5 160.9 157.3 159C157.8 157.8 162.2 139.8 162.5 138C162.5 137.7 162.8 137 163.2 136.4C163.6 135.8 164.2 133.4 164.6 131C165.2 127.5 165 126.5 163.5 125.4C161.8 124.1 161.8 123.6 164.5 114.8C166 109.7 167.5 104 167.7 102.2C168 100.4 168.6 98.7 169.1 98.4C169.6 98.1 170 96.6 170 95.1C170 93.6 170.4 92 170.9 91.5C171.5 90.9 172 89.4 172.2 88C172.4 86.6 172.8 85 173.2 84.4C174.4 82.5 171.6 78.6 167.5 76.5C165.3 75.4 163.3 74.2 163 73.9C162.7 73.6 161 72.8 159.1 72.2C149.3 68.8 143.3 72.7 140.4 84.3C139.4 88.2 138.7 91.9 138.8 92.3C138.9 92.7 137.1 92 134.8 90.6C130.1 87.9 124 87.1 119.8 88.8L117.2 89.9L116.8 84L116.5 78.2L125.7 77.8C130.7 77.7 135.1 77.2 135.5 76.8C136.5 75.9 136.8 73.2 136.9 66.5L137 60.5L142.8 60.4C147.2 60.3 149.5 59.6 153 57.4C160.6 52.7 162.4 49.7 162.8 41.3C163.2 35.2 162.9 33.5 161 30.6C159 27.2 151 20.1 151 21.5C151 21.9 150.3 21.6 149.4 20.9C148.4 20.1 144.7 19.5 139.8 19.4C135.4 19.3 131.8 19 131.6 18.8C127 11.3 118.8 3.40001 114.7 2.6C114.1 2.40001 112.2 1.8 110.7 1.20001C107.2 -0.299992 92.4 -0.399998 91.5 0.999996ZM114.3 10.3C118.5 12.8 125 19.4 125 21.2C125 21.7 124.1 22.9 123 24C121.9 25.1 121.3 26.6 121.7 27.6C122.3 29.3 122.1 29.3 133.8 26.9C138.9 25.9 141 25.9 144.8 26.9C155.2 29.7 159.8 39.5 154.5 47.6C151.5 52.3 147.5 53.4 133 54L119.5 54.5V57C119.5 59.3 119.9 59.5 124.8 59.8L130 60.1V65.6V71H101.1C85.1 71 71.9 70.7 71.7 70.2C71.5 69.8 71.5 67.4 71.8 64.7L72.2 60H85.5C102.5 60 109.9 58 116.6 51.5C119.5 48.8 121 46.5 120.8 45.3C120.2 42.2 117.2 42.7 114 46.3C108.5 52.6 105.2 53.4 80.9 53.8C56.2 54.2 52.7 53.6 48.1 48.5C42.8 42.4 44.3 32.6 51.2 28.5C55.6 26 64.8 25.4 70.6 27.4C73.2 28.3 76.2 29 77.2 29C80.1 29 80.7 26 78.2 23.9C77 23 76 21.7 76 21C76 18.5 85.8 10.1 90.6 8.6C98 6.20001 108.6 7 114.3 10.3ZM109.7 78.6C110 79.4 109.9 95 109.4 113.3L108.5 146.5L101.1 146.8C97 147 93.3 146.7 92.9 146.3C92.3 145.7 91.4 82.1 91.9 77.7C92 77.3 95.8 77 100.5 77C107.3 77 109.2 77.3 109.7 78.6ZM159.3 79.5C161.8 80.9 164.3 82.6 164.9 83.3C165.7 84.3 164.3 90.5 159.7 106.5L153.5 128.4L147.9 130.5C144.9 131.6 140.7 133.6 138.6 134.9C136.6 136.2 134.6 137 134.3 136.6C134 136.3 136.6 125.4 140 112.3C148.9 78.7 148.8 79 151.3 78C154.4 76.8 154.3 76.7 159.3 79.5ZM52 80.2C53.2 82.8 68 137.3 67.7 137.7C67.5 137.8 65.4 136.6 63 134.9C60.5 133.3 56.1 131.2 53.2 130.3L48 128.6L46.1 122.1C38.6 96.7 35.9 86.5 36.2 84.7C36.6 82 43.4 78 47.8 78C50.2 78 51.3 78.6 52 80.2ZM80.4 96.7C82.3 97.6 84.1 98.9 84.4 99.6C84.7 100.3 85.2 110.8 85.6 122.9C86.2 142.2 86.1 145 84.8 145C83 145 76.8 143 75.8 142.1C74.9 141.3 65 103.8 65 101.2C65 99.7 66.2 98.4 68.8 97.1C73.4 94.6 75.9 94.5 80.4 96.7ZM132.5 97.2C134.9 98.8 136 100.2 136 102C136 103.4 133.8 112.8 131.2 123C126.4 141.3 126.3 141.5 122.9 143.2C121 144.1 118.5 144.9 117.3 145C115.1 145 115 144.7 115 135.7C115 130.7 115.3 120.1 115.7 112.4L116.3 98.2L119.4 96.7C123.8 94.5 128.5 94.7 132.5 97.2ZM58 139.3C79.5 151.4 86.9 153.5 104.3 152.8C117.9 152.2 124.9 150 137.5 142.5C146.2 137.3 154.4 134.1 155.6 135.3C156.7 136.4 140.2 198.4 138.4 199.7C137.5 200.3 132.7 201.9 127.6 203.1C120.2 205 115.5 205.4 102 205.4C85.7 205.5 76.1 204.3 65.2 200.7L61.5 199.5L53.9 170C49.7 153.8 46 139.2 45.6 137.6C44.9 134.8 44.9 134.8 48.7 135.5C50.8 135.8 55 137.5 58 139.3Z" fill="#151540"/>
<path d="M82.2 164.2C80.7 165.7 80.7 169.3 82.2 170.8C83.7 172.3 87.3 172.3 88.8 170.8C91.6 168 89.5 163 85.5 163C84.3 163 82.9 163.5 82.2 164.2Z" fill="#151540"/>
<path d="M112.2 164.2C110.7 165.7 110.7 169.3 112.2 170.8C113.7 172.3 117.3 172.3 118.8 170.8C121.6 168 119.5 163 115.5 163C114.3 163 112.9 163.5 112.2 164.2Z" fill="#151540"/>
<path d="M90.7 177.7C89.1 179.3 90.2 183 93.1 185.4C95.4 187.3 97.3 188 100.5 188C105.8 188 111 184.2 111 180.4C111 176.8 108.4 176.3 105.5 179.4C102.4 182.7 98.7 182.8 95.8 179.5C93.6 177 91.9 176.4 90.7 177.7Z" fill="#151540"/>
<path d="M174.8 60.2C169.4 66.1 168.8 69.3 173 69.8C175 70 176.7 68.9 180.4 65C184.8 60.4 185.2 59.6 184.2 57.4C182.5 53.8 180.1 54.5 174.8 60.2Z" fill="#151540"/>
<path d="M409.7 120.1C407.4 121.8 407.1 122.7 407.5 126.1C407.8 128.2 407.6 130 407.1 130C406.6 130 405.7 131.3 405.2 132.9C404.1 135.9 405 137 408.5 137C410.2 137 419 128.5 419.1 126.8C419.8 118.8 415.3 115.6 409.7 120.1Z" fill="#151540"/>
<path d="M218.8 120.8C213.2 124.2 216.2 130 223.6 130C227.7 130 229.3 131.1 227 132.5C226.5 132.8 226 134.2 226 135.6C226 136.9 225.6 138 225 138C224.5 138 224 138.9 224 140C224 141.2 223.3 143.2 222.4 144.5C221.5 145.9 221.1 147 221.5 147C221.9 147 221.8 147.6 221.2 148.3C220.6 148.9 219.2 152 218 155C216.8 158 215.2 162.1 214.3 164C213.5 165.9 212.4 168.4 212 169.5C209.6 175.5 205.6 183.8 203.8 186.2C202.8 187.8 202.1 189 202.4 189C202.7 189 202.2 189.8 201.3 190.9C200.3 191.9 199.3 192.7 199 192.7C198.7 192.7 197.2 193.2 195.7 193.8C192 195.4 190.5 195.3 187.1 193.6C182.8 191.3 181.7 189.4 181.8 183.7C181.8 177 182.9 174.3 187.5 169.7C192.1 165.1 195.4 163.7 204.5 162.1C208.4 161.4 212.5 160.2 213.8 159.4C216.3 157.7 216.6 154.4 214.5 151.6C213.7 150.5 213 150 213 150.5C213 151 212.5 150.9 211.8 150.2C209 147.4 195.1 149.7 186.5 154.3C178.3 158.8 170.5 168.4 168.3 177C167.2 181.3 167.2 190 168.3 193.7C169.5 197.7 175.8 205 178.1 205C178.9 205 180.3 205.7 181.3 206.4C183.2 207.9 195.4 208.5 197.3 207.3C198.6 206.5 199.1 206.3 201.3 206.1C202.6 206 203.9 205.1 209.9 200C213.8 196.6 217.4 190.6 222 179.5C224.1 174.6 226.3 169.3 227.1 167.2C228.9 162.7 230 160 230.9 157.7C231.4 156.5 232.1 154.7 232.4 153.7C232.8 152.4 234.1 152 238.2 151.9C243.6 151.8 245.4 151.6 250.3 150.6C253.4 149.9 260.2 144.2 259.5 142.9C259.2 142.5 259.7 141.5 260.5 140.6C262.4 138.7 262.9 127 261.1 127C260.6 127 260 126.1 259.7 125.1C259.5 124 257.4 122.2 255.2 121.1C251.6 119.2 249.3 119 236.3 119C224.1 119 221 119.4 218.8 120.8ZM247.7 131.2C249.2 133.1 249.9 137 248.8 137C248.3 137 248.1 137.4 248.4 137.9C249.1 139 244.5 141 241 141C239.3 141 238 140.8 238 140.5C238 140.2 239 137.8 240.2 135C241.9 131.2 242.9 130 244.6 130C245.8 130 247.2 130.6 247.7 131.2Z" fill="#EC9615"/>
<path d="M456.7 121C455.4 122.1 453.9 124.2 453.6 125.6C452.9 128.1 449.8 135.6 447.9 139.2C447.4 140.2 447 141.8 447 142.9C447 144 446.6 145 446 145.2C445.5 145.4 444.9 146.4 444.7 147.5C444.1 151.5 443.1 152.1 440 150.5C432.1 146.4 421.6 150.7 416.1 160.4C414.4 163.4 413 166.2 413.1 166.7C413.2 167.1 413.1 167.8 413 168.2C412.8 169 412.8 174.7 412.9 177.4C413 178.2 413.7 179.5 414.5 180.4C415.4 181.2 416.1 182.2 416 182.5C416 182.8 416.2 183 416.5 183C416.8 182.9 417.8 183.6 418.6 184.5C420.5 186.3 433 186.6 434.8 184.8C435.7 183.9 436.6 183.9 438.5 184.8C439.9 185.5 443.9 186 447.4 186C454.7 186 458.3 183.7 457.7 179.4C457.3 176.1 455.5 175 450 175C446.6 175 445.9 174.7 446.8 173.8C447.5 173.1 448 171.6 448 170.3C448 169 448.4 168 448.9 168C449.4 168 450.1 166.8 450.4 165.4C451 163.1 453.2 157.7 456.2 151.5C456.7 150.3 457.2 148.8 457.4 148C457.6 146.6 461.2 138.4 463.1 134.8C463.6 133.8 464 132.1 464 131.1C464 130 464.4 128.9 464.9 128.5C465.4 128.2 466.1 126.6 466.5 125C467.7 119.4 461.8 117 456.7 121ZM438.2 161.5C438.5 162.8 438.2 164.8 437.5 165.7C436.8 166.7 435.9 168.6 435.5 170C434.5 173.2 432.2 174.9 429 175C425.4 175 424.2 173.9 424.5 170.8C424.9 167.5 429 159.9 430.1 160.6C430.5 160.8 431.1 160.6 431.5 160C431.8 159.5 433.4 159 434.9 159C437.2 159 437.9 159.5 438.2 161.5Z" fill="#EC9615"/>
<path d="M521.2 142.8C519.9 143.7 512.3 158.8 511 163.1C510.1 166.1 512.6 169 516 169C518.1 169 522 165.7 522 164C522 161.9 523.7 163.1 525.1 166.2C528 172.6 525.6 174.7 514.6 175.2C509.3 175.5 507.4 176 506.4 177.5C505.6 178.5 504.7 179 504.3 178.7C504 178.3 504 178 504.4 178C504.8 178 504.5 177.3 503.6 176.5C502.8 175.7 500.4 175 498.1 175C494.4 175 494 174.8 494 172.5C494 171.1 494.5 170 495 170C495.6 170 496 169.5 496 168.9C496 167.9 497.3 164.6 500.1 158.5C501.8 154.8 501.9 152 500.4 150.5C498.2 148.4 493.6 148.6 491.5 151C489.9 152.8 489.6 152.8 488.5 151.3C487.7 150.3 485.3 149.5 481.7 149.2C477.1 148.8 475.5 149.2 472.5 151C468.6 153.4 463.3 158 464.4 158C464.7 158 464.1 158.9 463 160C461.9 161.1 460.9 162.9 460.9 164C460.8 165.9 460.6 166.8 460 168.7C459.4 171.1 459.9 177 461 179.1C463.8 184.3 467.2 186 474.6 186C479.1 186 480.9 185.5 482.6 183.9L484.8 181.8L485.5 184C486.2 186.1 486.7 186.2 494.2 185.8C500.6 185.5 502.5 185.1 503.6 183.6C504.3 182.6 504.7 181.3 504.4 180.9C504.1 180.4 504.3 180 504.8 180C505.3 180 506 181.3 506.4 183L507 186H517.3C527.2 186 527.9 185.9 531.8 183C537 179.3 538.1 177.2 537.8 171.4C537.7 166.5 533.8 158 531.7 158C531.2 158 530.9 157.7 531.3 157.4C531.6 157 531.2 156.1 530.4 155.3C529.5 154.3 529 152.1 529.1 148.8C529.3 143.6 528.3 142 524.5 142C523.4 142 521.9 142.4 521.2 142.8ZM484.7 158.8C485.9 159.6 485.9 162.4 484.7 163.6C484.3 164 484 165.2 484 166.2C484 168.1 481.3 172.9 479.5 174.2C479 174.6 477 175 475.3 175C472.4 175 472 174.7 471.9 172.2C471.9 170.7 471.7 168.7 471.5 167.8C471.3 166.9 472.1 165.2 473.1 164.1C474.1 163 475 161.5 475 160.9C475 160.2 475.3 159.9 475.6 160.3C476 160.6 476.9 160.3 477.7 159.5C479.3 157.9 482.8 157.6 484.7 158.8Z" fill="#151540"/>
<path d="M266.1 151.2C262.2 153.7 257.4 158 258.4 158C258.7 158 258.1 158.9 257 160C255.9 161.1 254.9 162.9 254.9 164C254.8 165.9 254.6 166.8 254 168.7C253.4 171.1 253.9 177 255 179.1C257.8 184.3 261.2 186 268.6 186C273.1 186 274.9 185.5 276.6 183.9L278.8 181.8L279.5 184C280.2 186.1 280.6 186.2 288.6 185.8C294.1 185.5 297 185.7 297 186.4C297 187 295.8 190 294.4 193C291.7 198.7 291.2 199.8 288.5 206.4C284.9 215.6 286 219.6 292.2 218.6C295.3 218.1 298.9 214.7 299 212.2C299 211.5 299.4 210.2 300 209.2C300.5 208.3 301.5 205.9 302.3 204C305.7 195.8 307.2 192.4 308 190.8C308.6 189.8 309 188.2 309 187.1C309 184.2 311.2 182.9 313.4 184.6C315.6 186.2 325.5 186.5 329.2 185.1C332 184 338 178.4 338 176.8C338 176.2 338.7 174.9 339.5 174C341.7 171.6 342.6 160.8 340.9 156.8C338.7 151.3 335.4 149 329.9 149C327.1 149 325 149.5 324.8 150.2C324.4 151.2 323.5 151.2 320.3 150.2C318.1 149.5 315.6 149 314.9 149C313.4 149 309 155.2 309 157.2C309 157.9 307.8 161 306.4 164C303.3 170.4 302.4 172.5 301 176.2C300.5 177.8 299.5 179 298.9 179C298.2 179 297.9 178.7 298.3 178.4C299.6 177 295.9 175 292.1 175C288.4 175 288 174.8 288 172.5C288 171.1 288.5 170 289 170C289.6 170 290 169.5 290 168.9C290 167.9 291.3 164.6 294.1 158.5C295.8 154.8 295.9 152 294.4 150.5C292.2 148.4 287.6 148.6 285.5 151C283.8 152.8 283.6 152.9 282.5 151.3C281.7 150.2 279.4 149.5 275.4 149.3C270.6 149 268.9 149.3 266.1 151.2ZM278.7 158.8C279.9 159.6 279.9 162.4 278.7 163.6C278.3 164 278 165.2 278 166.2C278 168.1 275.3 172.9 273.5 174.2C273 174.6 271 175 269.3 175C266.4 175 266 174.7 265.9 172.2C265.9 170.7 265.7 168.7 265.5 167.8C265.3 166.9 266.1 165.2 267.1 164.1C268.1 163 269 161.5 269 160.9C269 160.2 269.3 159.9 269.6 160.3C270 160.6 270.9 160.3 271.7 159.5C273.3 157.9 276.8 157.6 278.7 158.8ZM328 159C330.6 160.4 331 164.5 328.9 168C327.9 169.6 327.2 171 327.5 171C327.8 171 327.2 171.8 326.3 172.8C324.1 175 320.6 175.4 317.5 173.7C315.2 172.5 315.1 172.3 316.5 169.6C317.3 168 318.2 165.7 318.4 164.5C319.3 159.7 324.2 157 328 159Z" fill="#151540"/>
<path d="M357.1 151.2C353.2 153.7 348.4 158 349.4 158C349.7 158 349.1 158.9 348 160C346.9 161.1 345.9 162.9 345.9 164C345.8 165.9 345.6 166.8 345 168.7C344.4 171.1 344.9 177 346 179.1C348.8 184.3 352.2 186 359.6 186C364.1 186 365.9 185.5 367.6 183.9L369.8 181.8L370.5 184C371.2 186.1 371.7 186.2 379.1 185.8C387.6 185.5 389.2 184.6 389.5 180.3C389.7 176.5 387.9 175 383.1 175C379.4 175 379 174.8 379 172.5C379 171.1 379.5 170 380 170C380.6 170 381 169.5 381 168.9C381 167.9 382.3 164.6 385.1 158.5C386.8 154.8 386.9 152 385.4 150.5C383.2 148.4 378.6 148.6 376.5 151C374.8 152.8 374.6 152.9 373.5 151.3C372.7 150.2 370.4 149.5 366.4 149.3C361.6 149 359.9 149.3 357.1 151.2ZM369.7 158.8C370.9 159.6 370.9 162.4 369.7 163.6C369.3 164 369 165.2 369 166.2C369 168.1 366.3 172.9 364.5 174.2C364 174.6 362 175 360.3 175C357.4 175 357 174.7 356.9 172.2C356.9 170.7 356.7 168.7 356.5 167.8C356.3 166.9 357.1 165.2 358.1 164.1C359.1 163 360 161.5 360 160.9C360 160.2 360.3 159.9 360.6 160.3C361 160.6 361.9 160.3 362.7 159.5C364.3 157.9 367.8 157.6 369.7 158.8Z" fill="#151540"/>
<path d="M192.9 172.4C192.2 173.9 190.6 175.3 189.3 175.6C186.6 176.3 186.4 177.3 188.5 179C189.3 179.7 190 181.3 190 182.7C190 185.3 192.2 186.7 194.2 185.3C194.9 184.9 196.8 184.5 198.4 184.5C200.9 184.5 201.3 184.1 201.5 181.5C201.7 179.8 202 177.6 202.2 176.5C202.4 175.2 201.9 174.5 200.5 174.2C199.4 174 197.5 172.9 196.3 171.8L194.1 169.7L192.9 172.4Z" fill="white"/>
<path d="M100.2 9.1C109.1 10.4 116.3 14.9 119.6 21.2C120.5 23 121.6 23.7 122.5 23.4C124.7 22.5 124.3 20.9 121 16.8C116.4 11.2 109 8 101.1 8.1L94.5 8.2L100.2 9.1Z" fill="#ECC1C1"/>
<path d="M45.5 41C46.7 49.1 53.1 53.3 63.7 52.8C70 52.5 70.3 52.4 68.1 51.2C66.9 50.4 63.1 49.4 59.9 49C53.4 48.1 49.3 45.4 46.6 40.5L44.9 37.5L45.5 41Z" fill="#ECC1C1"/>
<path d="M113 55.5C107.4 59.4 99 61 84.8 61H72V65.5V70H100.5H129V65.5V61H124.5C119.9 61 117.6 58.9 118.2 55.3C118.7 52.8 116.8 52.9 113 55.5Z" fill="#ECC1C1"/>
<path d="M150.5 137.2C150.3 137.9 147.1 150.2 143.5 164.4C136.6 191.5 135.5 194.6 131.1 199.4C128.9 201.9 128.8 202.2 130.5 201.6C131.6 201.2 133.8 200.6 135.3 200.3C136.8 200 138.4 199 138.9 198.1C139.7 196.7 155 138 155 136.6C155 135.4 150.9 136 150.5 137.2Z" fill="#ECC1C1"/>
<path d="M85.9 11.8C81.8 14.4 77 19.7 77 21.5C77 21.9 78 23 79.1 23.9C80.9 25.4 81.1 26 80.1 27.8C78.7 30.4 77.6 30.5 72 28.5C67 26.8 58.3 26.5 54.3 28.1C47.9 30.5 45.1 36.6 48 42C49.6 45.1 55.2 47.8 61.9 48.9C65.4 49.5 69.1 50.7 70.1 51.6C71.6 52.9 74.2 53.1 87.7 52.8C102.9 52.5 103.7 52.4 108.3 49.7C110.9 48.2 113.8 45.8 114.7 44.4C116.5 41.6 119.7 41.5 121.4 44.2C122.2 45.5 121.9 46.6 120.1 49C118.9 50.8 118.1 52.4 118.4 52.7C118.6 53 124.6 53.1 131.7 53.1C142.1 52.9 145.3 52.6 148.5 51C155.8 47.5 158 40.3 153.7 33.9C149.4 27.5 141.1 25.6 130.5 28.5C123.6 30.3 121 30.1 121 27.5C121 25 117.4 18.7 114.3 15.8C110.4 12.1 105.7 10.3 97.5 9.60001C90.9 8.90001 90.2 9.10001 85.9 11.8Z" fill="#ECECEC"/>
<path d="M92 80C92 82.8 98.4 83.9 101 81.5C104.1 78.7 103.4 78 97.5 78C92.7 78 92 78.3 92 80Z" fill="#ECECEC"/>
<path d="M150.8 79.1C148.3 80.5 148.6 81.5 152.1 84.1C154.8 86 155.3 86.1 156.6 84.8C157.8 83.6 157.9 82.8 156.9 80.7C155.6 77.9 153.7 77.4 150.8 79.1Z" fill="#ECECEC"/>
<path d="M40.3 81.1C38.5 82.3 37 83.6 37 84.1C37 85.5 43.4 85.1 45.5 83.6C47.1 82.4 47.2 82 46.1 80.6C44.4 78.6 44.2 78.6 40.3 81.1Z" fill="#ECECEC"/>
<path d="M120.7 97.1C118.6 98.2 117 99.7 117.3 100.3C118.3 103.4 127.4 103.6 128.6 100.5C129 99.4 125.8 94.9 124.8 95C124.6 95.1 122.8 96 120.7 97.1Z" fill="#ECECEC"/>
<path d="M68.7 98.1C65.7 99.7 65.1 100.4 66 101.5C68.5 104.5 77 103.6 77 100.2C77 98.9 74.3 96 73 96.1C72.7 96.1 70.8 97 68.7 98.1Z" fill="#ECECEC"/>
<path d="M46.4 137.7C47 139.7 62 198.3 62 198.7C62 199.4 73.6 202.2 82 203.6C92.5 205.4 117.5 205 124.2 203C129.6 201.4 134.5 195.4 136.9 187.2C140 177.1 149.9 137.6 149.5 137.2C149 136.7 143.8 139.5 136.8 144.1C133.4 146.2 127 149.2 122.6 150.7C115.5 153.1 112.9 153.4 101 153.4C85.4 153.5 79.9 152.2 68 145.8C52.2 137.2 49.7 136 47.8 136C46.4 136 46 136.5 46.4 137.7ZM89.2 163.7C92.8 167 90.5 173 85.5 173C80.6 173 78.3 167.5 81.7 163.8C83.7 161.6 86.8 161.5 89.2 163.7ZM119.2 163.7C122.9 167 120.2 173 114.9 173C110.4 173 108.4 167.4 111.7 163.8C113.7 161.6 116.8 161.5 119.2 163.7ZM96 178.5C99 181.7 101.7 181.7 105.1 178.4C109.3 174.4 113 176.8 111.6 182.5C110.2 188 100.3 190.8 94 187.5C89.4 185.1 87.5 179.9 90.2 177.2C92 175.4 93.4 175.7 96 178.5Z" fill="#ECECEC"/>
</svg>
